<svg width="34" height="34" viewBox="0 0 34 34" fill="none" xmlns="http://www.w3.org/2000/svg">
<g filter="url(#filter0_d)">
<path d="M15 28C22.1797 28 28 22.1797 28 15C28 7.8203 22.1797 2 15 2C7.8203 2 2 7.8203 2 15C2 22.1797 7.8203 28 15 28Z" fill="url(#paint0_radial)"/>
<path d="M15.0005 5.09521C9.54627 5.09521 5.0957 9.54655 5.0957 15C5.0957 20.4542 9.54704 24.9047 15.0005 24.9047C20.4547 24.9047 24.9052 20.4534 24.9052 15C24.9052 9.54578 20.4539 5.09521 15.0005 5.09521ZM15.0005 23.744C10.179 23.744 6.25642 19.8215 6.25642 15C6.25642 10.1785 10.179 6.25593 15.0005 6.25593C19.822 6.25593 23.7445 10.1785 23.7445 15C23.7445 19.8215 19.822 23.744 15.0005 23.744Z" fill="#F8B013"/>
<path d="M14.9996 7.29626C10.768 7.29626 7.2959 10.7695 7.2959 15C7.2959 19.2316 10.7692 22.7037 14.9996 22.7037C19.2313 22.7037 22.7033 19.2304 22.7033 15C22.7033 10.7683 19.23 7.29626 14.9996 7.29626ZM14.9996 21.5245C11.4019 21.5245 8.47504 18.5976 8.47504 15C8.47504 11.4023 11.4019 8.4754 14.9996 8.4754C18.5973 8.4754 21.5242 11.4023 21.5242 15C21.5242 18.5976 18.5973 21.5245 14.9996 21.5245Z" fill="#F8B013"/>
</g>
<defs>
<filter id="filter0_d" x="0" y="0" width="34" height="34" filterUnits="userSpaceOnUse" color-interpolation-filters="sRGB">
<feFlood flood-opacity="0" result="BackgroundImageFix"/>
<feColorMatrix in="SourceAlpha" type="matrix" values="0 0 0 0 0 0 0 0 0 0 0 0 0 0 0 0 0 0 127 0"/>
<feOffset dx="2" dy="2"/>
<feGaussianBlur stdDeviation="2"/>
<feColorMatrix type="matrix" values="0 0 0 0 0 0 0 0 0 0 0 0 0 0 0 0 0 0 0.1 0"/>
<feBlend mode="normal" in2="BackgroundImageFix" result="effect1_dropShadow"/>
<feBlend mode="normal" in="SourceGraphic" in2="effect1_dropShadow" result="shape"/>
</filter>
<radialGradient id="paint0_radial" cx="0" cy="0" r="1" gradientUnits="userSpaceOnUse" gradientTransform="translate(15 15) scale(17.8434)">
<stop stop-color="#FFCF00"/>
<stop offset="1" stop-color="#F7AE15"/>
</radialGradient>
</defs>
</svg>
